<svg id="eagle" xmlns="http://www.w3.org/2000/svg" version="1.1" viewBox="0 0 612 540.2">
    <defs>
        <style>
            .st0{fill:#fff}
        </style>
    </defs>
    <path class="st0" d="M306 3.3C158.6 3.3 39.2 122.7 39.2 270.1S158.7 536.9 306 536.9s266.8-119.5 266.8-266.8S453.4 3.3 306 3.3Zm0 516c-137.6 0-249.2-111.6-249.2-249.2S168.4 20.9 306 20.9s249.2 111.6 249.2 249.2S443.6 519.3 306 519.3Z"/>
    <path class="st0" d="m92.6 244.6 4.1 8.3 9.1 1.4-6.6 6.4 1.6 9.2-8.2-4.3-8.2 4.3 1.5-9.2-6.6-6.4 9.2-1.4 4.1-8.3zM526.4 244.6l4.1 8.3 9.2 1.4-6.6 6.4 1.5 9.2-8.2-4.3-8.2 4.3 1.6-9.2-6.6-6.4 9.1-1.4 4.1-8.3zM262.6 456.4c4.1-.2 4.6-.5 4.6-2.5V430c0-1-.9-1.6-1.8-1.6s-2.3 1-3.1 1.3l-.3-.8 9.4-4.9h1.1v30c0 2 .5 2.3 4.6 2.5v1h-14.5v-1ZM282.8 456.9c7.7-.9 15.8-6.8 16.4-14.3-1.1.5-3.1 1.4-5.7 1.4-6.4 0-10.5-4.4-10.5-10.6s4.6-10.4 11.4-10.4 11.6 5.7 11.6 13.9c0 12.8-9.5 19.3-23.2 20.6v-.6Zm11.7-15.3c4.4 0 6.3-1.3 6.3-6 0-7.7-2.7-11-6.8-11s-5.8 2.4-5.8 6.9c0 6.4 3 10.1 6.3 10.1ZM328 424.1c1.5 0 2.2-.3 2.7-.6s.7-.6 1.1-.6.3 0 .3.2c0 .5-.5 1-1 1.7l-1.9 2.9-11.3.3-1.3 3c10.3 3.3 13.7 7.5 13.7 13.2 0 8.6-4.8 13-15.4 13s-4.8-1.3-4.8-2.4.6-1.9 1.9-1.9c3.3 0 4.2 1.9 6.4 1.9 5.2 0 8.6-3.2 8.6-7.3s-4.1-9.8-14.6-12.4l5.9-11.3h9.7ZM339 430.7c1.2-4.5 4.8-7 9.8-7s8.2 2.5 8.2 6.5-2.1 5-4.9 7.2c4.4 1.2 6.8 3.9 6.8 9s-5.1 11.2-15.4 11.2-4.6-1-4.6-2.5.6-1.8 2-1.8 3.4 2.4 5.6 2.4c4.8 0 8.1-3.5 8.1-7.9s-2.5-7-10.3-7.3v-.3c4.8-1.5 7.9-4 7.9-7.9s-2.1-5.2-5.8-5.2-5.6 2.5-6.8 3.7h-.6ZM84.1 352.3c-3 2.1-3.3 3.3-2.8 5.7l-.9.2-2.9-14.6.9-.2c.5 2.4 1.6 3.6 3.2 3.2.6-.1 1.3-.4 2.3-1.2l5.6-3.9-2.9-14.4-7.9-1.7c-.5-.1-1-.1-1.5 0-1.6.3-2.1 1.8-1.6 4.3l-.9.2-2-10.3.9-.2c.8 2.2 1.9 2.9 6 3.8l34 7.5.2.9-29.7 20.6Zm4.7-24.6 2.5 12.7 13.2-9.2-15.7-3.4ZM119.8 351.8l9.4 17.7c6.5 12.1.4 22-6.8 25.8-9.3 5-20.2.8-26-10.2l-8.7-16.3.8-.4c2.1 3.9 3.9 4 6.6 2.6l22.4-11.9c2.9-1.6 3.3-3.3 1.4-6.8l.8-.4Zm-24.6 25.6c.4 1.8 1 3.5 2 5.4 4.6 8.7 13.3 11.4 21.8 6.9 8.6-4.6 11.4-13.6 7-21.9-1-1.8-2.2-3.5-3.6-4.8l-27.2 14.5ZM173.9 426.9l-.7.6c-2.7-3.2-4.5-3.1-7-.9l-18.8 17.1c-1.9 1.7-3 3.5.3 7l-.7.6-11-12.1.7-.6c2.9 3.5 4.9 2.8 7 .9l18.4-16.8-31.9 10.1-.6-.7 13.2-30.8-18.5 16.7c-2.4 2.2-2.7 3.7 0 6.8l-.7.6-8.6-9.4.7-.6c2.8 3.2 4.7 2.9 7 .8l18.1-16.4c2.3-2.1 2.9-4.2.4-7.5l.7-.6 7.5 8.2-11.9 28.2 29.1-9.2 7.4 8.2ZM181 431.7l13.5 9.8-.6.8c-3.1-2.3-4.9-2.6-7.2.5l-14.9 20.5c-2.1 2.9-1.6 4.4 1.8 6.9l-.6.8-13.5-9.8.6-.8c3.6 2.6 5.1 2.4 7.2-.5l14.9-20.5c1.9-2.6 1.8-4.4-1.8-6.9l.6-.8ZM237.3 465.9l-1.3-.7c-3.4-1.7-4.1-1.4-6.2 2.6l-14 27.3-.7-.3-9.8-37.9-10.4 20.2c-1.8 3.4-1.1 5.3 2.3 7l-.4.8-11.7-6 .4-.8c3.7 2 5.5 1.3 6.9-1.5l11.7-22.9c-.3-3.6-1.6-5.6-4.7-7.1l.4-.8 9.4 4.8 8.7 34.6 9.9-19.3c1.4-2.7 1.2-4.1-1.5-5.5l-1.3-.7.4-.8 11.9 6.1-.4.8ZM246 466l16 4.7-.3.9c-3.7-1.1-5.5-.8-6.6 2.9l-7.1 24.3c-1 3.4 0 4.7 4 5.9l-.3.9-16-4.7.3-.9c4.3 1.3 5.6.5 6.6-2.9l7.1-24.3c.9-3.1.2-4.7-4-5.9l.3-.9ZM291.3 485.9h-1c.2-5.8-3.3-10.8-8.1-11.5-3.5-.5-6.6 1.4-7 4.4-.2 1.7.2 2.8 1.2 4 2 2.6 9.7 7.7 12.6 11.6 1.9 2.5 2.5 5.2 2.1 7.4-.8 5.5-6.4 9.2-12.5 8.3-4.6-.7-7.1-3-8.9-3.2-.9-.1-1.7.3-2.4 1.6h-.9c0-.1 1.8-12.2 1.8-12.2h.9c.3 6.1 3 10.9 8.9 11.8 4 .6 7.2-1.4 7.7-4.7.2-1.6-.2-3.3-1.4-4.9-3-4-10.1-8.5-12.3-11.4-1.6-2.2-2-4.7-1.7-6.9.8-5.3 5.8-8.7 11.5-7.8 2.2.3 3.7 1 4.9 1.7 1.2.7 2.2 1.3 3.1 1.5.9.1 1.6-.4 2.3-1.6h1c0 .1-1.7 12.1-1.7 12.1ZM311.5 475.9c-3.4.2-5.6 2.4-5.7 6.2h-1l-.2-8.2 32.1-1.6.7 8.2h-1c-.7-3.6-2.7-5.7-6.8-5.5l-6 .3 1.5 28.8c.2 3.2 1.9 4.1 5.5 3.9v1l-16.2.8v-1c4.4-.2 5.1-2 5-4.9l-1.4-28.4-6.5.3ZM383.1 491.2c3.8 2.6 6.5 3.3 9.3 2.7l.3.9-9 2.9-18.3-12-3.3 1.1 3.5 11c.8 2.4 2.1 4.2 6.3 2.7l.3.9-15.1 4.8-.3-.9c4-1.2 4.3-3.2 3.5-5.6l-7.9-24.7c-.8-2.5-2.4-3.6-6.1-2.4l-.3-.9 17.5-5.6c6-1.9 11.9.5 13.5 5.6 1.3 4.2-.5 8.3-5.9 11.7l12 7.9Zm-21.6-6.2 1.4-.5c6.3-2 9.3-5.9 7.8-10.8-1.3-4.2-5.8-6.3-10.1-4.9-1.3.4-2.2.9-3.6 2.2l4.5 14ZM431 472.6c2.8 2.4 4 2.4 6.2 1.3l.4.9-13.5 6.3-.4-.9c2.2-1 3-2.4 2.3-3.9-.3-.6-.7-1.1-1.7-2l-5.1-4.5-13.3 6.2.2 8.1c0 .5.1 1 .3 1.4.7 1.4 2.3 1.6 4.6.5l.4.9-9.5 4.5-.4-.9c1.9-1.3 2.4-2.6 2.3-6.7l-.9-34.8.9-.4 27.1 23.8Zm-25.1 1.4 11.7-5.5-12.1-10.6.4 16.1ZM429.4 436.2c-2.7 2.1-3.1 5.2-1 8.4l-.7.6-4.9-6.6 25.1-20.1 5.4 6.3-.8.6c-2.7-2.6-5.6-3.1-8.8-.6l-4.7 3.7 18 22.6c2 2.5 3.9 2.2 6.7 0l.6.7-12.7 10.2-.6-.7c3.5-2.8 3-4.7 1.3-6.9l-17.8-22.2-5.1 4.1ZM455.1 412.7l11.1-12.5.7.6c-2.6 2.8-3.1 4.6-.2 7.2l18.9 16.8c2.6 2.4 4.2 2.1 7.1-1.1l.7.6-11.1 12.5-.7-.6c3-3.4 2.9-4.8.2-7.2l-18.9-16.8c-2.4-2.1-4.2-2.2-7.1 1.1l-.7-.6ZM479.5 377.3c5-8.9 16.5-11.9 25.6-6.7 9.1 5.2 12.4 16.5 7.3 25.4-5 8.9-16.5 11.8-25.6 6.6-9.1-5.2-12.5-16.5-7.4-25.4Zm31.2 17.7c3.6-6.3 0-13.6-8.9-18.7-9-5.1-17.1-4.3-20.6 1.9-3.6 6.3 0 13.5 8.9 18.6 8.9 5.1 17 4.4 20.5-1.9ZM507.7 316.9l-.5 1.3c-1.4 3.5-1.1 4.2 3.1 5.9l28.4 11.6-.3.7-36.9 13 21 8.6c3.6 1.5 5.4.7 6.8-2.9l.9.4-4.9 12.1-.9-.4c1.7-3.8.8-5.6-2.1-6.8l-23.8-9.7c-3.6.6-5.4 2.1-6.7 5.3l-.9-.4 4-9.8 33.7-11.6-20.1-8.2c-2.8-1.2-4.2-.8-5.3 2l-.5 1.3-.9-.4 5-12.4.9.4ZM95.8 179.1l-.3 1c-5.6-1.1-11 1.6-12.4 6.2-1 3.3.4 6.7 3.3 7.6 1.6.5 2.8.2 4.2-.5 2.9-1.5 9.1-8.4 13.4-10.7 2.8-1.5 5.5-1.6 7.7-1 5.3 1.6 8.1 7.7 6.3 13.6-1.4 4.4-4 6.6-4.6 8.3-.3.9 0 1.7 1.2 2.6l-.3.9-11.7-3.6.3-.9c5.9.7 11.1-1.3 12.8-7 1.2-3.8-.3-7.3-3.5-8.3-1.6-.5-3.3-.3-5 .6-4.4 2.3-10 8.7-13.2 10.4-2.4 1.3-4.9 1.3-7.1.6-5.1-1.6-7.7-7-6-12.6.7-2.1 1.6-3.5 2.4-4.6.9-1.1 1.6-1.9 1.9-2.8.3-.9-.2-1.7-1.3-2.5l.3-1 11.5 3.6ZM118.6 119.4l.8.5c-2.4 3.4-2 5.1.7 7l21 14.3c2.1 1.5 4.1 2.1 6.7-1.9l.8.5-9.3 13.5-.8-.5c2.7-3.7 1.6-5.4-.8-7l-20.6-14.1 17.3 28.8-.5.8-33-5.7 20.6 14.2c2.7 1.8 4.2 1.8 6.6-1.6l.8.5-7.2 10.5-.8-.5c2.5-3.5 1.7-5.2-.8-7l-20.2-13.8c-2.6-1.8-4.8-1.8-7.4 1.3l-.8-.5 6.3-9.2 30.2 5-15.7-26.2 6.2-9.1ZM176.7 108.4c3.3 1.7 4.5 1.3 6.4-.2l.6.7-11.5 9.4-.6-.7c1.8-1.5 2.3-3.1 1.3-4.4-.4-.5-1-.9-2.1-1.5l-6.1-3.1-11.3 9.3 2.2 7.8c.1.5.4 1 .7 1.3 1 1.2 2.6 1 4.6-.6l.6.7-8.1 6.6-.6-.7c1.6-1.7 1.7-3.1.6-7.1L144 92.4l.7-.6 32.1 16.5Zm-24 7.4 10-8.2-14.3-7.3 4.4 15.5ZM211 92.2 186.1 107l-.5-.8c4-2.2 3.9-4.1 2.3-6.7L175 77.8c-1.5-2.5-3.2-3.5-7-1.1l-.5-.8 14-8.3.5.8c-3.5 2-3.8 3.6-2.1 6.6l13.5 22.6c.8 1.4 1.5 1.5 2.9.7l6.4-3.8c4.4-2.6 6.1-5 5.1-11.9l.9-.2 2.3 9.9ZM246.7 77l-27.1 10.4-.3-.9c4.3-1.5 4.6-3.3 3.4-6.2l-9-23.6c-1-2.7-2.5-4-6.7-2.3l-.3-.9 15.2-5.8.3.9c-3.8 1.4-4.4 2.9-3.1 6.1l9.4 24.6c.6 1.5 1.3 1.8 2.7 1.2l6.9-2.7c4.7-1.8 6.9-3.9 7.1-10.9h1l.6 10.1ZM287 31.4c6.6-.8 13.3 1.6 14.1 8 .5 3.9-1.7 7.2-5.6 8.7 5 .3 8.7 3.6 9.3 7.9.6 4.9-2.7 10.1-11.5 11.2l-17.8 2.2v-.9c4.8-.6 4.9-2.5 4.4-6.3l-2.8-22.5c-.5-4.4-1.1-6-6-5.4v-.9c-.1 0 15.9-2 15.9-2Zm-3.1 16.8c2.3.2 3.3.2 4.5 0 4.2-.5 7.1-4.1 6.6-8.2-.5-4.4-4.6-7.3-9.5-6.7-1.1.1-2 .4-3.3.8l1.7 14Zm2.1 17.4c1.7.3 2.9.3 4.4.1 5.2-.6 8.3-4.2 7.7-8.8-.6-4.9-5.2-7.6-11.6-6.8-.8 0-1.4.2-2.4.5l1.9 15ZM319.8 31.8l16 2.6-.2.9c-3.7-.6-5.1.2-5.7 3.7l-3.2 19.5c-.9 5.6 1.9 10 8.3 11.1 7.8 1.3 12.3-2 13.5-9.7l2.9-17.5c.5-3.1-.6-4.8-4.7-5.3l.2-.9 13.2 2.1-.2.9c-4.4-.8-5.7.2-6.3 3.6l-2.9 18c-1.2 7.4-7.1 12.4-16.5 10.9-10.5-1.7-14.1-7.9-12.9-15.1l2.8-17.1c.7-4.6.4-6.2-4.5-6.9l.2-.9ZM390.3 57.4l-1-.3c1.3-5.5-1.3-11.1-5.8-12.6-3.3-1.1-6.7.2-7.7 3-.6 1.6-.3 2.8.4 4.2 1.4 3 8.1 9.3 10.2 13.8 1.4 2.8 1.4 5.5.7 7.7-1.8 5.3-8 7.9-13.8 5.9-4.4-1.5-6.4-4.2-8.2-4.8-.9-.3-1.7 0-2.7 1.1l-.9-.3 4-11.6.9.3c-.9 5.9.9 11.1 6.6 13.1 3.8 1.3 7.3 0 8.4-3.2.5-1.5.4-3.3-.4-5-2.2-4.4-8.4-10.3-9.9-13.5-1.2-2.4-1.1-5-.4-7.1 1.7-5.1 7.3-7.5 12.8-5.6 2.1.7 3.4 1.7 4.5 2.6 1.1.9 1.9 1.7 2.8 2 .8.3 1.7 0 2.5-1.2l1 .3-3.9 11.4ZM406.2 53.3l15.1 7.2-.4.9c-3.5-1.7-5.3-1.7-6.9 1.8L403.1 86c-1.5 3.2-.8 4.7 3 6.5l-.4.9-15.1-7.2.4-.9c4.1 1.9 5.4 1.4 6.9-1.8l10.9-22.8c1.4-2.9 1-4.6-3-6.5l.4-.9ZM465.8 92l-1.2-.8c-3.1-2.3-3.8-2.1-6.5 1.6l-18.2 24.7-.6-.4-3.6-39-13.4 18.3c-2.3 3.1-1.9 5.1 1.2 7.3l-.6.8-10.6-7.8.6-.8c3.3 2.6 5.2 2.1 7.1-.4l15.2-20.7c.3-3.6-.7-5.8-3.5-7.8l.6-.8 8.5 6.3 3.1 35.5 12.8-17.5c1.8-2.5 1.8-3.8-.6-5.7l-1.2-.8.6-.8 10.8 7.9-.6.8ZM490.3 127.2l-.6-.7c2.9-3.4 2.8-5.9.7-8.5l-7.2-8.8-10.8 8.9 5.9 7.2c2.2 2.7 4.4 2.5 7.1.3l.6.7-9.9 8.1-.6-.7c2.9-2.4 3.4-4.4 1-7.3l-5.8-7.1-10.2 8.3c-1.6 1.3-1.8 2.3-.8 3.5l5.8 7c2.2 2.7 5.6 4 11 2.4l.7.9-8.9 3.4-18.5-22.6.7-.6c2.7 3.3 4.5 3.1 6.9 1.1l19.9-16.3c2.2-1.8 2.2-3.8-.2-6.6l.7-.6 18.3 22.3-6 5.4ZM509.2 161.5l-.5-.9c4.7-3.2 6.5-9.1 4.1-13.3-1.7-3.1-5.1-4.4-7.7-2.9-1.5.8-2.1 1.9-2.5 3.4-.9 3.2-.3 12.3-1.6 17.1-.9 3-2.6 5.1-4.6 6.2-4.9 2.7-11.2.5-14.2-4.9-2.2-4.1-1.9-7.5-2.8-9.1-.5-.8-1.3-1.2-2.7-1l-.5-.8 10.7-5.9.5.8c-4.6 3.8-6.8 8.9-3.9 14.1 1.9 3.5 5.5 4.9 8.4 3.3 1.4-.8 2.5-2.2 3-4 1.4-4.7.7-13.2 1.7-16.7.7-2.6 2.5-4.5 4.5-5.6 4.7-2.6 10.4-.7 13.2 4.4 1.1 1.9 1.4 3.6 1.6 4.9.2 1.4.2 2.5.7 3.4.4.8 1.3 1 2.7.8l.5.9-10.6 5.8ZM522.1 195.7l-.3-1c5.3-2.2 8.3-7.5 6.9-12.1-1-3.3-4.1-5.4-6.9-4.5-1.6.5-2.4 1.4-3.2 2.8-1.6 2.9-2.9 12-5.3 16.3-1.5 2.8-3.7 4.4-5.8 5-5.3 1.6-11-1.9-12.8-7.9-1.3-4.5-.3-7.7-.8-9.5-.3-.9-1-1.4-2.4-1.5l-.3-.9 11.7-3.5.3.9c-5.3 2.7-8.5 7.2-6.8 12.9 1.1 3.9 4.3 6 7.5 5 1.6-.5 2.9-1.6 3.8-3.3 2.4-4.3 3.5-12.8 5.2-15.9 1.3-2.4 3.4-3.8 5.6-4.5 5.1-1.5 10.3 1.6 11.9 7.2.6 2.1.6 3.8.5 5.1-.1 1.4-.3 2.5 0 3.4.3.9 1 1.3 2.4 1.4l.3 1-11.6 3.4ZM197.5 304.3v22.6h7.1v-22.6h-7.1Zm5.1 20h-3.3v-18h3.3v18ZM209 304.3v23h7.6v-23H209Zm5.6 20h-3.3v-18h3.3v18ZM220.3 304.3v23h8.2v-23h-8.2Zm5.8 20h-3.2v-18h3.2v18Z"/>
    <path class="st0" d="m446.7 254.7-14.6.7-1.4 12-8.7 1.3-5.3-9.1-13.5 2.8-.5 11.6-7.7 3.4-7.7-9.3-12 6.1 1.9 11.6-6.6 4.2-10.5-6.8-10.6 9.3 4.2 10.4-6.5 7.8-12.2-4.5-7.5 9.6 1.1 3.7-14.4-7.5-7.4 8.2v-24.1l-14.7-8.7-16.5 8.7c.5.3.6.8.6.8.4-.1.8.3.8.3v4.1h-1.3l-5.2-6s-.2-20.5-.2-21.7-.9-1-.9-1h-4.7c-1.6 0-1.3 1-1.3 1l-.3 19.6-6.6 2.8-5.8-4.2 2.1-12-13.5-7.6-7.5 7.6-8-4V264l-14.2-5.5-6.9 9.1-8.8-1.6-3-11.9-13.6-1.8-6.1 10.3-9.4-.2-4.9-11.1-14.6 2-1.6 11-8.4 1.8-5.1-9.1-1.4 3.9 4.7 7.7 12.8-2.4 1.7-11 9.3-1.1 5.1 11h13.5l5.9-10.4 8.7 1.1 3.2 12.1 14.2 2.8 6.8-8.8 8.9 3.5-.3 11.3 12.9 6.6 7.1-7.3 8 4.5-1.7 11.3 10.1 8.2 6.3-2.5v4.2h-13.8v20h-7.7v-25h-50.4v39.4s34.6.2 35.9.2c1.4 0 2 .3 2 .3s.2 5.1.2 6.3.7 1.2.7 1.2l58.7 1.1c1.4-.2 2 1.6 2.3 3 .3 1.4 1 1.1 1 1.1l11.2-.2 2.8 9s-7.5 5.4-8.8 6.3-.7 1.7-.7 1.7 2.3 9 3 10.8c.7 1.9 1.2 1.5 1.2 1.5l11.3 1.9v10.4c.1 0-12.4 3.3-12.4 3.3l-.5 14.4s1.8.6 4.1 5.2c.3-7.4.4-16 .4-16l11.9-2.6-.2-16.7-9.5-5.3 2.3-9.3 11.5.8 5-11.9-8.4-7s55.7.9 56.8.9 1.1-.9 1.1-.9v-13.4h35.8v-7c-.2-.7.5-.9.5-.9h15.3c1.4.4 1.5-.7 1.5-.7v-28.2h-31.6v8.7H364V316l-7.3-3.5-5.6 8.4-14.6-8.8-5.9 8.1-1-2.3 6-7.4 12.1 4.5 8.8-10.6-4.1-11.5 6.4-5.4 10.7 6.5 10.6-6.9-1.8-12 6.4-3 8 8.8 12.3-5.7.7-11 7.3-1.7 4.9 8.4c.8 1.3 1.8 1 1.8 1l13.3-2.3 1.3-11.5c-.1-1 .7-.9.7-.9l7.2-.5c1.2 0 1.3 1 1.3 1l2.8 6.4c.4.5.4 1.5.4 1.5-.4.8 2.8 2.9 2.8 2.9l-.8-7.5-2.7-6.3Zm-207.3 67.9h-9.5v11h-35v-34.1h44.5v23.1Zm63.1 54-2.9-9.7 5.9-4.2-2.7 11.3 3.2 2.6h-3.5Zm18.6-23.9-3.5 8.5-9.5-.8 1.5-1.4-4.8-13.1-11.2.7-.8-1.5 19.5.5 8.6 7.2Zm86.7-28.1H381v-3.5h26.8v3.5Zm0-10.3h-27.3v-3.2h27.3v3.2Zm-10-17.1h27.5v24.9h-15.5v-18.4h-12.1v-6.5Zm-31.1 9.8h41v2.3h-29.3v7.8h29.3v1.8h-29.3v8.7h29.3v2.1h-33.1v-7.9l-8.2-4.2.3-10.5Z"/>
    <path class="st0" d="M170.6 346.5v-2.6s.2-.7-1.2-.7l-15.4-.4s-.5.5-1.1-1.1c0 0-6.3-14-17.2-22.5 0 0-1.2-.4-1.3-1.4 0 0-13.4-32.8-6.5-59.9 0 0 8.1-6.3 12.2-31.2h5s-.2 2.3-2.2 4.2c0 0 .1 1.5 2.2 1.3 0 0 1.8-1.3 3.8-4.8h1.1c0-.1.8.1.8-1.1s.5-8.2.5-8.2-.4-.7 1.5-.7h154.5l16.3 5.9s1.1.2 0 .6-8.8 4.5-8.8 4.5l2.1 5.2s0 .4 1.4 0c1.5-.4 14.6-2.7 14.6-2.7l15.5 5.4-10.1 3.4-1 6.9s-.2 1.2 1.2 1.4l-3.9 16.1s-1.6 11.9 10.9 14.7c6.9-1.6 10.2-3.4 6.8-18.1 0 0-.6-8.7 6.2-13l12.2 10.1s1.5 1.8 1.3 3.5l-.6 12.7s-.2 1 1.7 0c1.9-.9 28.1-13.1 28.1-13.1l.6-6.9s-.5-1.2 1.4-1.6l16.1-7s1-.3.5-1.8l-.8-8.9s-.5-1.1 1-2.2 7.1-4.8 7.1-4.8 0-.8 2.6-.9l13.3-1.4s.8.3.8-1.8l.5-14.5s-.5-.5.8-1.5l6-8.1 3.9-.5 4.5 3.6 1.5 10.8 4.6 2.1.7 2.7-7.8 3.8s-.9.6-.8 1.3l-5.9 15.6 3 8.3s.2.5.9.2l3.2-1.2s1.2.2.2 1.2l-7.9 5.5s-.3.4-.4 1.2l-.7 4.8-1.8 1.6s-.6.3-.2 1.2l1.1 2.2s-.5 1.5-.4 2.4l1.5 5.4-.2 5.2s0 1.2-.9.5l-1.5-1s-1.5.3-.5 1.9l3 3.8v8.6s-.2.9-1.4.3c0 0-2.6-2.1-2.3-3.1 0 0-1.4-8-4.4-6.5 0 0 .9 3.6.5 4.2 0 0-1.2 2.8-1.1 3.3 0 0 0 1.1 1.8 1.8 0 0 2.4 1 2.2 3.2 0 0 0 .5.7 1 0 0 5.1 3.7 3.6 5.5l-2.7 3.4 1.3 1.4s1.6-.4 1.1.9c0 0-.2 1.1-.1 1.5 0 0-.6 1-.6 1.3 0 0-.1 1.3-.9 1.1 0 0-.9 1.6-.7 2.4 0 0-3.9 8.3-13.2 17.8-9.3 9.5-8.2 17.7 1 27.1 0 0 .8 6.9 6 10.7 0 0 7.9 4.7 7.3 13.8 0 0-1.7 7.6-6.5 8.3 0 0-3.2-3.6-5.8-9l-5.4.8s-.4 0-.2.6c.3.5 3.8 6.7 3.8 6.7l2.4.4s.8-.2.8.8v2.5s1.2 2.6 4 2.5c0 0 7-1.7 10.1-8.6 0 0 6.4-11.2-7.3-22.9 0 0-3-2.3-4.9-8.5-.4-1.1-.8-1.5-.8-1.5s-3.9-3.6-4.6-6.7-.3-8.7 5-13.8c0 0 14-13.9 16.6-27.9l.4-.6-.5-31.9-1.2-6.1s-.5-.7 0-1.4l.9-5.1s5.5-4.8 5.2-6.5l5.2-2.8-1.9-11.5s0-.9-.9-.6l-4.2 1.3s-1.8.2-1.1-1.9l4.6-11.5 10.6-4.3-2.1-8.9s-.2-.8-1.1-1l-2.6-1.4s-1.2-.2-.9-1.5l-1.3-9.1s0-.7-.8-1.2l-7.1-5.8-8.3 1s-.5-.2-.8.6l-8.4 11.2s-.6.5-.4 1.3l-.5 12.8-12.2 1.6s-.7-.2-1.1.3l-11.9 8.4s-.4.1-.3.9l1 9.7s.1.8-.7.9l-16.5 7.3s-.5.3-.3 1l-.5 6.4s0 .6-.8.9l-17.3 7.9s-1 .7-.8-.8c0 0 .6-7.7-2.5-10.7 0 0-8.2-8.4-14.1-11.9 0 0-5.1-.3-10.8 6.3s-1.8 19.7-1.8 19.7.8 4-2.9 4.4-5.1-6.9-4.8-7.8 5-21 5-21l16.2-5.3s.9 0 .9-.9-.3-1.7-.3-1.7l-22-7.8-1.2-3.2s-.1-.6-1.3-.2l-5.1.8s-1.2.5 0-1.5l.9-1.7s.9-1.3-.4-1.3l-24.9-9.2H146.7s-.9-.4-.9 1.4v1.8l-.4 5.2s.2 1.5-2 1.2l-8.1-.7s-1.8-.6-1.6 1.1c0 0-3.2 24.3-11.2 33.6 0 0-9.4 29.1 7 67.3 0 0 11.7 6.6 19.1 25.6 0 0 18.9.6 20.6.4 0 0 1.1.2 1.1-2Z"/>
    <path class="st0" d="M313.4 418.8h-1c-8.1-.2-10.6-3.1-11-3.6l-.2-.2v-.3c-.8-1.6-2-3.4-2.5-3.8h-.5l-2.2-1.8-2.1-4.1c-1.2-.9-2.5-1.8-3-1.9h-.4c-.2-.2-4.7-2.1-7.2-6.4-1.9-2.7-3.9-5.5-5-6.8l-.5-.3-.8-.9c-.5-.5-1.8-1.6-2.8-1.7h-.5c-.4-.2-1-.3-1.4-.3V388c.1 0 0 .6 0 .6-.1.3-1.2 3.3-4.5 4.7-2.7 1.2-6 1-9.8-.7-8.2-3.6-17.9-18.1-20.4-22-1.4-.2-3.1-.3-4.4-.1 0 .8 0 3.1-1.4 4.5-.7.7-1.6 1.1-2.5 1.1 0 0-15.9.5-27.8 0h-.7L176.1 358l-8.7-11.2 3-2.8 9.1 10.4 23 16.7c9.9.4 22.3 0 25.8 0v-.2c-.2-1 0-2.3.8-3.7l.4-.8.9-.3c3.3-1.3 8.6-.3 9.1-.2l1.1.2.6.9c3 4.9 12.2 18.1 18.8 21 2.4 1 4.4 1.3 5.8.7.9-.4 1.4-1 1.7-1.5-.2-2.3.6-3.6 1.4-4.3 2-1.8 5-1.2 6.1-.9 2.3.3 4.3 1.9 5.1 2.7 1.2.7 3 2.9 7.2 9.1v.2c1.5 2.5 4.2 3.9 4.9 4.2 1.5.4 3.5 1.9 5.1 3.1l.4.3 2.1 4.2.5.4c2.3.9 4 3.9 5 6 .5.4 2.5 1.5 7.1 1.7 2.5 0 3.9-.2 4.7-.4-1.2-6.2 1.5-16.2 1.8-17.4l.2-.5c12.9-25.2 36.9-23.3 37.1-23.2 9.1 1 11.4-1 12-1.8.9-1.3.1-3.3 0-3.8-1.2-1.7-1.2-3.2-1-4.2.5-2.5 2.8-3.7 3.3-3.9 8.3-4.2 20.2-1.7 20.7-1.6 4.8 1.2 14.1-.6 17.3-1.4h.4c11.5-1.1 16.3 6.3 17.1 10.4 2.3 9.6 8.5 15.6 8.6 15.7l-.2 7.5c-.3-.3-10.6-10.9-13.2-22-.2-.8-2-7.4-11.8-6.7-1.7.4-12.9 2.9-19.3 1.3 0 0-10.6-2.2-17.4 1.2-.3.1-.6.5-.7.6 0 0 0 .1.3.4l.2.4c1 1.8 2 5.8-.2 9-2.5 3.6-7.9 4.9-16.6 4-.8 0-20.7-1.5-32.1 20.4-1.3 4.6-2.7 12.7-1.4 15.8l.3.6v.7c-.3 1.5-1.8 4-9.2 4ZM346.9 263.2c0 .2 0 .5.1.7 0-.2 0-.5-.1-.7ZM447.8 195c.2-.5.5-.6.7-.6-.2 0-.6 0-.7.6ZM365.4 245.6c4.4 3.5 8.5 7.7 9.2 8.4-1.5-1.7-4.2-4.4-9.2-8.4ZM354.6 244.1c-.6.4-1.2.8-1.8 1.3.6-.5 1.2-.9 1.8-1.3ZM469.6 212.3c.8.1 1 .8 1.1 1 0-.2-.3-1.1-1.1-1ZM457.5 239.1c.1 1 1.2.9 1.2.9s-1 0-1.2-.9ZM397 249.4s-.6.3-.3 1c-.2-.7.3-1 .3-1ZM143.8 221.3c1.7.3 2-.5 2-.9 0 .3-.3.9-2 .9ZM454.7 309.3c-4.1 12.6-15.5 23.9-15.5 23.9s11.3-10.8 15.5-23.9ZM395.7 257.5s-.2.1-.3.2c.1 0 .2-.1.3-.2ZM379.4 264.9c-.5.2-.9.4-1.1.5l1.1-.5ZM395.4 257.7c-.9.4-11.6 5.3-15.7 7.2l15.7-7.2ZM377.2 264.7c-.1 1.2.4 1 .7.9-.2.1-.7.2-.7-.9ZM460.5 253.6c.2 1.8-5.2 6.5-5.2 6.5s5.8-4.8 5.2-6.5ZM463.1 238.6c.6 0 .6.7.6.7s.1-.8-.6-.7ZM454.4 265.2c-.4.7 0 1.4 0 1.4s-.3-.4 0-1.4ZM439.6 355.2s0-.7-.8-1.5c0 0 .5.5.8 1.5Z"/>
    <path class="st0" d="M169.5 348.5s1.1.2 1.1-1.8v-.2c0 2.2-1.1 2-1.1 2ZM332.4 223.9c-.6 1-.6 1.4-.4 1.5-.1-.1 0-.5.4-1.5ZM434.2 347c.2.8.6 1.7 1.1 2.5-.6-1.1-1.1-2.4-1.3-3.9 0 .5.1.9.2 1.3ZM146.1 215v-1.8c0 1.3-.1 3.5-.2 5.1l.2-3.3ZM129.9 322.5c-7.7-17.8-9.7-33.7-9.7-45.5 0 11.9 2 27.8 9.7 45.5ZM438.9 394.2c.1 0 .2.2.3.3-.1 0-.2-.2-.3-.3ZM134.5 220.5c.5-.2 1.1 0 1.1 0s-.7-.3-1.1 0ZM146.7 211.8h1.2s-.7-.3-1.3 0ZM437.7 390.3c0-.9-.8-.8-.8-.8s.8-.1.8.8ZM436.5 336.3c.7-1 1.6-2.1 2.7-3.2-1.1 1-2 2.1-2.7 3.2ZM149 348.1c-7.4-19.1-19.1-25.6-19.1-25.6s11.9 7.6 19.1 25.6ZM439.1 207.5v-.3.3ZM345 272.5c3.7-.3 2.9-4.4 2.9-4.4s.6 3.9-2.9 4.4ZM462.8 238.6c-1 .3-3.6 1.1-4.1 1.3l4.1-1.3ZM333 221c.4 0 .6.1.7.3 0-.2-.2-.4-.7-.3ZM441.7 395.2c-1 0-1.8-.3-2.5-.7.6.5 1.5.8 2.5.7ZM340.3 264.7c-.3.8.9 7.5 4.3 7.8-1-.1-3.7-1.1-4.3-7.8ZM338.8 224.8Z"/>
    <path class="st0" d="M472.2 162.4c-38.2-52-71.9-63.3-71.9-63.3-1.8-1.8-3.2-.2-3.2-.2l-17.6 13.8c1.5 27.4-11.7 37.8-11.7 37.8l-14.3-.6c-1.4-32.3-16.7-63.4-16.7-63.4-14.5-7.8-29.5-9-29.5-9-9.6-1.1-9.9 4.9-9.9 4.9-3.5-1.2-10.8-1-15.3.4s-6.3 13.2-5.2 17.2c1 4 3.4 1.2 4.7-.1s2.3-.6 2.3-.6 11.8 7.3 13 8.5 0 1.9 0 1.9c-11.9 20.6-19.4 36.6-19.4 36.6-.8 3.1-2 2.6-2 2.6h-11.8c-1.8 0-2-1.1-2-1.1-10.8-16.3-13.7-34.1-13.7-34.1-.2-3.8-2-4.3-2-4.3l-15.9-11.1c-1.8-2-3-1.1-3-1.1l-4 2c-36.8 18.8-66 46.7-82.9 76.6-16.9 29.8-32.6 73.5-21.7 130.4 10.9 56.9 43.4 88 43.4 88 3.7 4.3 6.5 1.7 6.5 1.7 14.3-14.8 7.8-37.1 7.8-37.1-1.4-3.8 1.8-2.8 1.8-2.8l-7.4-9.4s11.8 33-5.1 48.5c0 0-26.4-23.9-40.8-71.1-14.4-47.2.2-102.1.2-102.1s7-23.4 10.5-30.6c0 0 19 8 35.3-18 9.7-15.9 29.2-28.9 29.2-28.9l2.2 4s-33.5 28-45.4 63.3h3.1s8.5-17.9 9.5-19.1c0 0 6.5 14.1 12.3 19.1h6.2s-6.2-22.3 26-47.6l9.2 9.2s-16.9 10.3-21.1 38.3h4.8s-2.5-17.7 19.7-35.9l10.8 9.7s-9.8 7.9-13.4 26.2h4.6s1.1-14.5 12.3-24c0 0 8.6 5.7 10.6 7.2 0 0-4.8 7.5-5.4 16.8h3.8s-.2-9.1 4.8-15l9.1 4.6s-2.3 6.7-2.3 10.4h3.5s.3-7.6 2-9.1l5.4 2.5 2.5 6.7h3.9s-8.1-32.8 1.4-59.1l2.5-1s1.2-.7 1.7.8 3.5 8.1 3.5 8.1 0 1.6 2.1.5c2.1-1.2 10.9-4.5 10.9-4.5l6.2 7.8s1.3 2.1 3.3.2l9.2-7.1 5.9 5s1.3 1.7 2.3-.4l8-8.7 7.3 4.6s.8.9 2-.8l4.5-5s.5-1.1 3.5-.7l18.1.3s1.8.2 2.7-2.2c0 0 7.7-4.8 9.8-37.3l12.9-11.5s43.9 10.5 88.6 92.6c0 0-9.9 2-24.2-10.6-14.3-12.6-26.1-32.1-39.5-42.4 0 0-15.4 27.2-22.5 36.1-7.1 8.9-28 23.7-42.1 30.1 0 0 1.9 15.8-4.8 25.5l-11.8-4.2 22 7.8s.3.9.3 1.7-.9.9-.9.9l-.6.2s0 2.3-.6 3.5h-.4.7c.9.6 1.9 1.3 2.9 2 0 0 4.6-11.2-1.7-32.8 0 0-.8-1.8 1.4-3.3l8.2-4.3s18.1 42.5 4.9 52.9c0 0 0-.3-.5-1.2 1.5 2.8 1.5 7.1 1.5 8.6 0-1.1.2-1.8-.2-3.9 0 0 17.3-4 19.2-4.8l.4-5.1v.4s-11 5.3-14.4 5.3c0 0 10.2-11.4-8.4-54.3l9.8-6.8s.7-.7 1.2 0c0 0 20.5 27 16.2 52.6L397 249l16.5-7.3c-.9.1-8.5 3.8-8.5 3.8s3.1-24.9-17.2-52.4c0 0-1.3-.8 0-1.8s6.4-4.7 9.8-8.2c0 0 19.7 19.3 19.3 44.7l-3.5 2.5 11.9-8.4s.2-.1.3-.2-4.8 3.4-4.8 3.4.5-22.9-20.6-44.5c0 0 5.7-7.2 8.9-12.1 0 0 22.3 21.3 26.3 45.9 0 0 0 2.3-1 3.4 0 0-1.7 2.4-1.5 3l5.7-.7.3-8.4s-4.6-23.2-28.1-46.4c0 0 6.3-10.1 7-13.2 0 0 22.1 19.3 34.6 41.8l4.6-.6-1.3.2s-17.6-29-36.1-43.9l2.3-4.5s16.8 17.4 23.6 26.7c0 0 18.7 27.7 41 25.2 0 0 24.3 51.8 12.6 100.7-11.7 48.9-28.9 84.3-55.7 108.6 0 0-5.4-1.8-8.5-17.1h-.4s-1.7-3-2.9-5c-3.2 10 7 23 7 23 1.5 2.5 4.2 1.8 4.2 1.8 38.4-32.6 54.4-84.9 59.5-111 5-26.1 8.2-83.7-30-135.6ZM182.7 208s-10.5-12.9-10.1-20.3c0 0 11.1-20.8 31.7-36.3 0 0 5.5 8.5 6.8 9.7 0 0-26.8 18.3-28.3 46.9Zm90.9-55.2s-9.4 19.7-2.8 47.7c0 0-43.1-18.1-69.4-58.9 0 0-16.1 6.8-33.7 31.1 0 0-13.8 21.5-30.3 15.4 0 0 12.8-45.1 90.3-88.7l15.7 12.3s4.5 28.4 10.9 37.4c0 0 .2 2.5 3.1 2.5 0 0 13.8 1.2 15.4.8 0 0 1.2-.3.8.6Zm72.6-4.6-3.7 5.5-6.8-4.2s-1.1-1.1-2.5.5c-1.5 1.6-7.9 8.2-7.9 8.2l-6.5-4.6s-.6-1.9-3.3.2c-2.7 2.2-8.1 5.2-8.1 5.2l-7.2-8.6s-.9-1.4-3.5.3l-6.5 2.7-2.6-6.6s.2-1.2-1.9-.5l-3.5.3 16.6-38.3s1.6-1.4-.6-2.4l-11.1-7.5s5.1-.4 15.5 5.5c0 0 4.2.4.5-3 0 0-11.3-5.9-15.7-5.9s-6 .8-8.7 2.8c0 0-.7-6.4 2.6-12.5 0 0 3.1-4.9 18 0 0 0-.4 6.4 8.5 2.6 0 0 2.3-.5 4.1 0 1.8.5 1.1-.7 1.1-.7l-13.5-4.3s-.9-5.5 12.9-2.8c0 0 11.2 2.8 20.4 6.5 0 0 7.9 18.8 11.1 40 3.2 21.2 2.3 21.4 2.3 21.4Zm14.7 83.1-.9 2.7c-.9-1.8-2.9-1.9-2.9-1.9-1.1.5 3.2-10.4 3.2-10.4.8 3.4.7 9.5.7 9.5Z"/>
    <path class="st0" d="M442.2 360.9s-1.4-2.2-2.6-5.7c1.9 6.2 4.9 8.5 4.9 8.5 4.7 4 7 7.9 8.1 11.4-.9-3.5-3.1-7.4-7.6-11 0 0 22.6-31.2 27.8-73.2 5.2-42-5.5-66.5-5.5-66.5l5.5-2.2-7.8 3.2s11 30.1 5.9 65.2-19.8 58.1-28.7 70.4ZM346.8 255.5v.6-.6ZM346.9 255.1v.4-.4ZM346.8 256.1v.4-.4ZM348.6 250c0 .1-1 1.5-1.6 4.3.3-1.5.8-3 1.6-4.3ZM347 254.5c0 .2 0 .4-.1.7 0-.2 0-.4.1-.7ZM346.7 256.5v.7-.7ZM348.6 250ZM347 254.3v.2-.2ZM346.6 259.1v.9-.9ZM346.6 259v-1.7 1.7ZM346.6 259.1ZM345.2 243.7l4.9-1.6s-2.2 4.4-1.5 7.9c.3-.5.7-1.1 1.1-1.5 1.1-1.2 2.1-2.2 3.1-3-.2.1-.3.3-.5.4 0 0 .2-1.4 1-2.9.8-1.4.7-2.1.7-2.1l-8.8 2.9ZM346.7 260.2v1.3-1.3ZM346.7 260v.2-.2ZM346.7 261.4c0 .4 0 .8.1 1.2 0-.4 0-.8-.1-1.2ZM346.7 257.2v.1-.1ZM451.9 386.6c-3.1 6.9-10.1 8.6-10.1 8.6s7-1.7 10.1-8.6ZM452.6 375.1c1.7 6.4-.8 11.5-.8 11.5s2.8-4.8.8-11.5ZM438.9 394.2c-.7-.7-1.1-1.4-1.1-1.4s.4.8 1.1 1.4ZM434.9 389.2l2 .3-2-.3z"/>
    <path class="st0" d="M454.7 309.3c.4-1.3.8-2.7 1.1-4.1-.3 1.4-.6 2.7-1.1 4.1ZM458.8 239.9ZM465 225.4l-2.8 1.1 2.8-1.1zM437.7 390.3v2.5-2.5ZM439.2 394.5ZM462.8 238.6h.3-.3ZM436.5 336.3c-2.5 3.5-3 6.7-2.6 9.3-.2-2.5.3-5.9 2.6-9.3ZM464 199.2c.7.6.8 1.2.8 1.2s0-.7-.8-1.2ZM435.3 349.5c1.5 2.7 3.5 4.2 3.5 4.2s-2.1-1.9-3.5-4.2ZM466.1 209.4c-.3 1.3.9 1.5.9 1.5s-1.2-.2-.9-1.5ZM457.6 238c-.2.4-.2.8-.1 1.1 0-.3 0-.6.1-1.1ZM470.7 213.3ZM332 225.5c.1.2.4 0 .4 0s-.3.1-.4 0ZM333.6 221.3c0 .4-.3 1-.3 1s.4-.6.3-1Z"/>
    <rect class="st0" x="357.5" y="236.1" height="7.2"/>
    <path class="st0" d="M337.5 224.6c1-.2 1.2 0 1.3 0 0-.1-.3-.5-1.3 0ZM347 263.9c.4 2.5.9 4.2.9 4.2-.4-1.5-.7-2.9-.9-4.2ZM145.9 218.3v1.8c-.1 0 0-.8 0-1.8ZM346.9 262.6v.6-.6ZM345 272.5h-.4.4ZM340.3 264.7c.3-.9 5-21 5-21l-5 21ZM134.1 221.6c0-.6.2-1 .5-1.1-.3.1-.6.4-.5 1.1ZM145.8 220.3v-.2.2ZM146.1 213.2c0-.8.3-1.2.6-1.4-.3 0-.6.4-.6 1.4ZM431.6 384.1zM120.2 277c0-13.4 2.7-21.8 2.7-21.8s-2.7 8.3-2.7 21.8ZM134.1 221.6s-3.2 24.3-11.2 33.6c7.5-8.3 11.2-31.8 11.2-33.6ZM143.8 221.3l-8.1-.7s5.8.7 8.1.7ZM169.5 348.5l-20.6-.4s18.9.6 20.6.4ZM365.4 245.6c-.6-.5-1.2-1-1.9-1.4.7.5 1.3 1 1.9 1.4ZM413.2 231.4c0-.7.3-.9.3-.9s-.4.1-.3.9ZM432.9 221l-6.5.8s-.4 0-.8.1l7.3-1ZM352.9 245.4ZM439.1 207.5l-.2 4.4.2-4.4zM396.3 255.4l-.1 1.3.1-1.3zM448.5 194.4h.1-.1ZM447.8 195l-8.4 11.2s8.3-10.5 8.4-11.2ZM439 207.2c0-.6.4-1 .4-1s-.4.4-.4 1ZM414.1 241.2s.1.8-.7.9c.9-.1.7-.9.7-.9ZM374.6 254c.6.7.9 1.2 1.2 1.6-.3-.6-.6-1.1-1.1-1.5v-.1ZM452.3 194l-3.7.5 3.7-.5zM377.2 264.2v.5-.5ZM378.3 265.4h-.3c0 .1.1 0 .3 0ZM379.7 264.8h-.2.2ZM378 265.6h-.1.1ZM395.7 257.5c.7-.4.5-.7.5-.7s0 .4-.5.7Z"/>
</svg>
